# xmcd
#
# Track frame offsets:
#	150
#	9527
#	19413
#	30508
#	41840
#	50580
#	61749
#	71312
#	80969
#	97820
#	108251
#	116378
#	130463
#	140045
#	154312
#	165444
#	180739
#	196771
#	205221
#	215983
#	226986
#	236772
#	247696
#	257992
#	266456
#	281154
#	289816
#	311661
#	327472
#	340450
#
# Disc length: 4672 seconds
#
# Revision: 1
# Processed by: cddbd v1.4PL0 Copyright (c) Steve Scherf et al.
# Submitted via: EasyCDDAExtractor 5.0.6
#
DISCID=c3123e1e
DTITLE=Юрий Визбор - ВСТАВАЙТЕ, ГРАФ
DYEAR=1900
DGENRE=
TTITLE0=Домбайский вальс
TTITLE1=Милая моя
TTITLE2=Английский язык
TTITLE3=Излишний вес
TTITLE4=Здравствуй, я вернулся
TTITLE5=Если я заболею
TTITLE6=Она мне ясно говорит
TTITLE7=Вставайте, Граф
TTITLE8=Люси
TTITLE9=Мой друг рисует горы
TTITLE10=Мурманск
TTITLE11=На плато Расвумчорр
TTITLE12=Над Канадой
TTITLE13=Наполним музыкой сердца
TTITLE14=Невеселый разговор
TTITLE15=Фанские горы
TTITLE16=Ночная дорога
TTITLE17=Я Иду На Ледоколе
TTITLE18=Ночь Летнего Солнцестояния
TTITLE19=Обучаю Играть На Гитаре
TTITLE20=Полярное Кольцо
TTITLE21=Серега Санин
TTITLE22=Синие снега
TTITLE23=Спокойно, товарищ, спокойно
TTITLE24=Сретенский двор
TTITLE25=Так вот мое начало
TTITLE26=Ходики
TTITLE27=Я бы новую жизнь
TTITLE28=Я в долгу перед Вами
TTITLE29=Давайте прощаться, друзья
EXTD=
EXTT0=
EXTT1=
EXTT2=
EXTT3=
EXTT4=
EXTT5=
EXTT6=
EXTT7=
EXTT8=
EXTT9=
EXTT10=
EXTT11=
EXTT12=
EXTT13=
EXTT14=
EXTT15=
EXTT16=
EXTT17=
EXTT18=
EXTT19=
EXTT20=
EXTT21=
EXTT22=
EXTT23=
EXTT24=
EXTT25=
EXTT26=
EXTT27=
EXTT28=
EXTT29=
PLAYORDER=
